<svg width="148" height="40" viewBox="0 0 148 40" fill="none" xmlns="http://www.w3.org/2000/svg">
<path fill-rule="evenodd" clip-rule="evenodd" d="M126.367 0.562445C125.972 1.26539 126.972 1.75061 126.584 2.53331C126.539 2.72504 126.348 2.89733 126.335 3.07318C126.784 2.86555 126.692 2.22008 127.239 2.12755C128.939 1.20465 131.473 1.3802 132.969 2.64202C133.316 2.93891 133.657 3.28422 133.87 3.66102L135.185 4.054H148V39.9266L111.96 40L111.928 16.0357L111.96 4.09217L124.4 4.02192L125.559 3.67691C125.584 3.61617 125.702 3.53641 125.635 3.45665L125.24 3.42487V3.34779C125.368 3.39576 125.336 3.25214 125.387 3.21041C125.508 3.18828 125.667 3.21991 125.769 3.17833C125.495 3.00604 125.495 2.62613 125.559 2.32879C125.6 2.12755 125.68 1.95809 125.807 1.80199C125.52 2.29983 126.367 2.74079 125.835 3.1464C125.88 3.23892 126.004 3.17818 126.087 3.1464C126.415 2.97411 126.275 2.46915 126.303 2.15933C126.195 1.7059 125.616 1.40871 125.835 0.840326L126.284 0C126.431 0.105598 126.456 0.386895 126.367 0.562445ZM127.036 1.55916L126.924 1.87833C126.991 1.45045 126.208 1.04469 126.819 0.718837C127.07 0.942657 127.096 1.26539 127.036 1.55916ZM134.376 5.03765C134.465 5.16538 134.516 5.43063 134.656 5.43063C134.605 5.11473 134.532 4.83997 134.405 4.55541C135.872 4.82051 137.368 6.06021 137.744 7.60942C137.833 7.89324 137.858 8.21954 137.999 8.47515C138.084 8.39183 138.056 8.15538 138.024 8.03419C139.04 8.0532 139.963 8.78154 140.418 9.72078C140.523 9.86128 140.523 10.0689 140.628 10.2256C140.584 9.19042 139.988 8.12657 138.986 7.6571L137.916 7.34402C137.699 6.54543 137.276 5.81411 136.764 5.11473L146.854 5.12736L146.867 21.048C146.221 20.7829 145.441 20.6263 144.741 20.7221C144.269 19.7508 143.436 18.7033 142.353 18.5084C143.174 19.109 143.923 19.9684 144.129 20.9392L143.569 21.3609C144.034 21.2525 144.505 20.9841 145.078 21.0481C145.766 21.064 146.364 21.3293 146.867 21.757V38.8696H141.284L141.29 37.403H137.827L137.82 36.1348H136.458L136.452 34.7868H135.847V34.5891C134.319 34.5602 132.498 33.9726 131.954 32.3881C131.531 31.2158 131.613 29.855 131.562 28.5198C131.486 28.3794 131.498 28.082 131.346 28.0597C131.327 30.0401 131.117 31.9153 130.55 33.6594C130.702 33.7234 130.89 33.5666 131.085 33.5447C132.221 33.3591 133.001 34.2348 133.984 34.538C132.969 34.7198 132.441 33.7362 131.39 33.9726C130.83 33.9821 130.321 34.2982 130.021 34.7868H129.379C130.702 32.8286 130.639 29.8389 130.079 27.5326C130.83 26.0794 130.378 24.2618 129.71 22.9137C129.674 22.6643 129.735 22.4377 129.875 22.2715C130.05 22.0289 130.397 22.0064 130.61 22.1437C131.237 22.7062 131.139 23.6196 131.225 24.4341C131.992 23.1051 131.613 21.2685 130.926 20.0129C130.251 19.1667 129.379 18.3394 129.735 17.1284C129.894 16.7231 130.111 16.2693 130.585 16.1478C131.486 16.2693 132.361 16.9879 132.689 17.8662C132.908 17.5503 133.437 17.5344 133.472 17.071C133.644 16.4574 133.141 16.0485 132.908 15.5536C133.192 15.6782 133.338 16.0712 133.596 16.1128C133.561 15.6941 133.657 15.2022 133.497 14.8128C132.909 14.6433 132.263 14.5156 131.626 14.4547C132.046 14.2091 132.67 14.2091 133.275 14.2472L133.326 14.2091C133.033 13.6851 132.714 13.1865 132.263 12.7268C131.072 13.3623 129.875 14.0749 128.838 15.0489C128.22 14.1098 128.264 12.794 128.245 11.7142C128.659 12.5125 129.016 13.3719 129.346 14.2345L129.391 14.2091C129.035 12.8991 130.203 12.241 130.362 11.1487C130.349 11.1197 130.378 11.0561 130.33 11.0371L129.315 12.417V12.931L128.22 11.3563C128.284 11.1488 128.538 11.1645 128.698 11.072L129.258 11.4297C129.302 11.2602 129.194 11.0879 129.175 10.8962C129.55 10.8036 129.608 10.4747 129.563 10.1169C129.455 9.95723 129.156 10.1007 129.239 9.80366C129.347 9.63093 129.646 9.80366 129.675 9.55474C129.627 9.34681 129.054 9.5032 129.347 9.19992C129.258 8.89665 129.55 8.475 129.102 8.35989C128.994 8.32455 128.876 8.26707 128.838 8.17454C128.818 7.91894 128.994 7.67002 129.239 7.65695C129.531 7.60927 129.85 7.70492 129.955 7.99869L130.079 8.2543L130.098 9.38201C130.066 9.50305 129.837 9.58296 129.914 9.72063C130.051 9.81955 130.331 9.76861 130.505 9.65989C130.97 9.14586 130.69 8.31816 130.442 7.79775C130.563 7.42065 130.27 7.09807 129.955 6.90306C129.662 6.82969 129.239 6.79434 128.962 6.91895C128.755 6.77845 128.427 6.84558 128.191 6.87128C128.039 6.94123 127.892 7.09792 127.879 7.26738C128.039 7.68532 127.411 7.75245 127.551 8.18717C127.498 8.66317 127.335 9.30181 127.8 9.65989C127.879 9.78762 128.144 9.84836 128.051 10.0206C127.879 10.2124 127.819 10.5192 127.978 10.7205C128.019 10.7748 128.039 10.8194 128.019 10.8674L127.844 11.0368C127.131 10.7205 126.803 9.95708 126.367 9.38201C126.275 9.30181 126.183 9.38201 126.116 9.45864L126.164 9.80366C126.692 10.2926 127.24 10.8035 127.551 11.4169C127.526 11.6308 127.478 11.8353 127.431 12.0588C126.883 11.3402 126.416 10.4138 125.836 9.59603C126.1 8.39183 125.273 7.17159 126.005 6.10462C125.973 5.87159 126.005 5.65119 126.221 5.51069L126.196 6.80712H126.116C126.049 6.60587 126.116 6.34106 126.049 6.13625C125.881 6.42082 125.82 6.79434 125.769 7.15243C126.068 7.14248 125.769 7.53234 126.03 7.54853C126.151 7.56115 126.396 7.56115 126.304 7.34387V7.26753C126.476 7.32827 126.539 7.17159 126.508 7.04371C126.508 6.954 126.508 6.85865 126.431 6.80712V3.52364L126.852 3.42472C126.864 3.30323 126.679 3.33502 126.718 3.21041C127.479 2.60044 128.501 2.4087 129.516 2.25542C131.46 2.14032 133.389 3.22006 134.376 5.03765ZM124.986 4.50729C124.896 4.76289 124.807 5.03765 124.852 5.32504C125.005 5.22612 125.005 5.01225 125.1 4.86849C125.1 5.33811 124.948 5.91956 125.24 6.34106C125.307 7.4208 125.145 8.475 125.161 9.58296C125.667 10.6499 126.348 11.6181 127.096 12.589L127.131 15.0167C127.277 15.2723 127.532 15.4704 127.739 15.694C127.335 15.9433 127.207 16.3969 127.131 16.8506L126.284 18.1824C126.284 18.8405 126.208 19.5277 126.583 20.0322C126.864 20.4986 126.182 20.7 126.443 21.1469C126.679 21.4858 126.819 21.9073 126.762 22.3447C126.195 25.14 126.415 28.235 126.577 31.1485C126.507 31.666 127.023 32.142 126.717 32.6053C125.96 33.8926 124.613 34.9433 123.018 34.7867V36.1346H121.245V37.4028H118.368V38.9171H112.963V21.7089C113.583 21.2364 114.3 20.9519 115.131 21.1051L115.971 21.393C115.923 21.1886 115.659 21.1051 115.487 20.971C115.722 20.0001 116.391 19.093 117.263 18.5433C116.175 18.652 115.321 19.8277 114.879 20.767C114.204 20.6101 113.533 20.7829 112.963 21.0481V5.14949H122.687C122.115 5.82347 121.777 6.57409 121.526 7.37595C120.599 7.58997 119.593 8.23217 119.167 9.17764C119.027 9.55474 118.874 10.0208 118.982 10.3979C119.183 9.54167 119.67 8.67283 120.529 8.28296L121.392 7.99869L121.414 8.45866C121.7 8.09434 121.65 7.51318 121.901 7.09792C122.388 5.81396 123.696 4.79185 124.986 4.50729ZM126.151 5.2135C126.208 5.02176 125.861 4.77284 126.221 4.80789V5.2135H126.151ZM125.74 5.18454C125.616 5.11458 125.74 4.96428 125.769 4.86863L125.861 4.83997C125.756 4.82051 125.724 5.03765 125.74 5.18454ZM129.913 8.45881C129.894 8.51643 129.875 8.59619 129.795 8.61565C129.709 8.56129 129.503 8.62842 129.531 8.45881C129.662 8.34371 129.786 8.37593 129.913 8.45881ZM128.971 9.17764C128.993 9.28636 128.961 9.3627 128.894 9.44246C128.754 9.30196 128.455 9.14586 128.554 8.88046C128.78 8.70461 129.073 8.89665 128.971 9.17764ZM131.39 11.289C131.358 11.4649 131.346 11.6181 131.314 11.7778C131.206 11.4966 131.072 11.1195 131.033 10.8195C131.314 10.8036 131.53 10.9918 131.39 11.289ZM142.722 12.9789C143.302 14.0938 143.238 15.7388 142.55 16.7771C142.194 17.3552 141.592 17.8184 141.035 18.1823C142.194 17.1824 142.767 15.662 142.487 14.0362C142.318 12.9564 141.71 11.9181 140.691 11.3814C141.519 11.5222 142.353 12.1993 142.722 12.9789ZM118.702 11.5737C117.129 12.5731 116.83 14.4993 117.171 16.1735C117.39 16.9785 117.846 17.6812 118.53 18.2944C117.232 17.6204 116.455 16.3041 116.455 14.8798C116.502 13.7712 116.856 12.7487 117.76 11.9952C118.059 11.8258 118.352 11.6055 118.702 11.5737ZM130.89 13.3242L130.362 13.6851C130.486 13.0106 130.531 12.3082 130.75 11.6662C130.798 12.2156 130.89 12.794 130.89 13.3242ZM131.766 12.8289C131.785 12.4485 131.925 12.1068 132.059 11.8032C131.973 12.1385 132.199 12.6725 131.766 12.8289ZM128.086 14.8798C127.316 14.4865 127.914 13.7167 127.844 13.1258L128.086 14.8798ZM130.859 15.4384C130.33 15.5535 129.767 15.7039 129.455 16.2243C129.175 16.2851 128.894 15.9595 128.697 16.314C128.614 16.314 128.646 16.2243 128.646 16.1735L128.78 16.0105L128.754 15.9751L128.245 16.3458C128.296 16.0167 128.586 15.7231 128.837 15.4384C128.996 15.2022 129.267 15.2979 129.487 15.3622C129.869 15.0648 130.55 15.0167 130.859 15.4384ZM126.851 18.2273C127.163 17.7608 127.634 17.3808 127.984 16.9876L126.924 18.6039L126.851 18.2273ZM132.657 18.9973C133.141 20.1378 133.268 21.5014 133.192 22.8017C133.622 23.4917 133.325 24.338 133.325 25.1401C133.249 27.0792 133.733 28.9412 133.561 30.8865C133.644 31.7619 133.682 32.6561 133.956 33.4549C133.09 33.1099 132.934 32.1227 132.829 31.2923C132.74 30.1454 132.81 28.9411 132.479 27.9059C132.345 26.8904 132.893 25.9799 132.581 24.9673C132.027 24.6352 132.422 23.8654 132.345 23.3669C132.253 22.7378 132.237 22.0828 132.046 21.5012C132.221 21.4405 132.313 21.5941 132.441 21.7087C132.473 20.4695 132.473 19.1984 131.785 18.2271L132.657 18.9973ZM127.29 20.8757C127.144 20.8277 127.096 20.6424 127.004 20.5145L127.659 18.8246C127.57 19.5276 127.443 20.2014 127.29 20.8757ZM127.602 31.0878C127.195 28.2702 127.252 25.0729 127.659 22.2841L127.914 21.4405C127.946 24.5744 128.554 28.1906 127.602 31.0878ZM129.175 34.9274C128.678 35.3014 128.602 36.4128 127.691 36.0807C127.978 35.646 128.427 35.2563 128.818 34.8955L129.175 34.9274ZM134.732 34.8954C134.376 35.2021 134.421 35.7835 133.924 36.0519H133.173C132.81 36.5053 132.638 37.119 132.129 37.4318C131.842 37.371 131.613 37.0996 131.498 36.8376C131.486 36.6204 131.422 36.4128 131.46 36.1636C131.673 36.0421 132.186 36.3394 132.154 35.9115L130.925 34.956L130.932 34.8954H134.732ZM92.3515 20.2748C92.3262 20.2748 89.7987 20.2782 89.8434 20.2748V4.09217H92.3515V20.2748ZM7.69186 4.09217C8.87897 4.06039 10.1969 4.98671 10.1685 6.57424C10.1685 6.57424 10.1685 9.3278 10.1621 9.33419C10.1364 9.3627 7.69186 9.87717 7.65989 9.87717V6.60602H2.50964V17.7927H7.65974C7.69171 17.7927 7.69171 14.458 7.65974 14.458C7.69171 14.4901 10.1683 15.0396 10.1683 15.0042C10.1173 16.4865 10.1968 17.7927 10.1683 17.7927C10.1968 19.7509 8.8504 20.3068 7.65974 20.2748H2.50964C0.936993 20.3068 0.00104122 19.3132 0.00104122 17.7927V6.60602C-0.0369948 5.15914 0.911537 4.09217 2.50964 4.09217H7.69186ZM85.2022 6.64122C85.2022 6.60587 85.2339 10.7365 85.2022 10.7365C85.167 11.4966 84.9859 11.7011 84.3236 11.9762C84.5115 12.0398 85.4217 12.0462 85.4504 13.2536C85.4568 13.3049 85.4821 17.8248 85.4504 17.8248C85.4504 19.2431 84.2916 20.2748 82.942 20.2748C82.8976 20.2748 75.0669 20.2748 75.0669 20.2748V4.09217C75.0669 4.06039 82.7289 4.12395 82.7289 4.09217C83.9478 4.09217 85.2022 5.16538 85.2022 6.64122ZM82.6941 6.60602V10.7365H77.5785V6.60602C77.5499 6.60602 82.7067 6.64449 82.6941 6.60602ZM82.942 13.2119C82.942 13.2535 82.942 17.7961 82.942 17.7961C82.942 17.8246 77.6387 17.7608 77.5783 17.7961C77.5783 17.8246 77.5783 13.2119 77.5783 13.2119H82.942ZM109.607 20.2523H106.848L105.154 15.9178H100.23C100.221 15.9337 98.597 20.2523 98.5653 20.2523C98.597 20.2936 95.8278 20.2523 95.8278 20.2618L102.048 4.07286H103.385L109.607 20.2523ZM104.244 13.4357C104.244 13.4647 101.226 13.4357 101.204 13.4357L102.742 9.48092C102.774 9.48092 104.244 13.4647 104.244 13.4357ZM59.9279 4.08252C59.9595 4.1146 64.0116 12.8958 63.9767 12.8958L67.9302 4.08252H70.6996V20.2556H68.1815V9.51954L63.9511 18.7064C63.9321 18.7033 59.6474 9.51954 59.6474 9.51954V20.2556C59.6857 20.2556 57.1518 20.291 57.1392 20.2556C57.1392 20.2556 57.1392 4.04762 57.1392 4.08252C57.1583 4.08252 59.9279 4.08252 59.9279 4.08252ZM32.4761 17.7961L38.1167 17.7897L38.123 20.2746C38.1292 20.2746 32.6797 20.2746 29.9675 20.2746V4.09217C30.0058 4.09217 32.4378 4.09217 32.4761 4.09217V17.7961ZM45.0179 17.7961H50.286V4.09217H52.753L52.7655 17.8248C52.7655 19.0645 51.6323 20.3068 50.2858 20.2748C50.2189 20.2748 45.0178 20.2748 45.0178 20.2748C43.6677 20.3068 42.506 19.1407 42.506 17.7963C42.538 17.7609 42.4966 4.09217 42.506 4.09217H45.0178V17.7961H45.0179ZM25.5876 6.64122C25.5876 6.71147 25.5876 17.8246 25.5876 17.8246C25.6195 19.1984 24.4641 20.3005 23.1173 20.2746H17.0887C15.6818 20.3354 14.5739 19.1313 14.5484 17.8246C14.5484 17.7925 14.5484 6.57409 14.5484 6.57409C14.5484 4.85527 15.7133 4.13049 17.0566 4.09202C17.0885 4.09202 23.0824 4.09202 23.1173 4.09202C24.5243 4.09217 25.5876 5.19092 25.5876 6.64122ZM23.0824 6.60602V17.7927H17.0566V6.60602H23.0824ZM91.9505 26.2546H86.2686C86.2399 26.2546 86.2686 30.3853 86.2686 30.3853C86.297 30.3853 90.6007 30.3853 90.6007 30.3853C90.6007 30.4202 90.6007 32.9022 90.6007 32.8638H86.2686V37.4444H91.9505V39.9234C91.9762 39.9234 83.7921 39.9234 83.757 39.9234V23.7472C83.7921 23.7757 91.9505 23.7472 91.9505 23.7472V26.2546ZM103.747 23.7472C105.065 23.7087 106.294 24.9451 106.256 26.1908C106.256 26.2225 106.262 27.7655 106.256 27.7369L103.747 28.3183C103.783 28.3565 103.747 26.2546 103.747 26.2546H98.5715V30.3853C98.6063 30.4202 103.811 30.4202 103.783 30.3853C105.288 30.3853 106.294 31.3146 106.256 32.9309C106.256 33.0043 106.256 37.3938 106.256 37.4446C106.294 39.128 105.091 39.9235 103.783 39.9235H98.6063C97.2219 39.9235 96.0949 38.962 96.0632 37.4446V36.1415C96.9225 35.8664 98.5714 35.5505 98.5714 35.5091V37.4446H103.747C103.747 37.4799 103.747 32.9024 103.747 32.8639H98.5461C97.0692 32.8639 96.0948 32.0016 96.0632 30.3854C96.0949 30.3854 96.0632 26.2898 96.0632 26.2898C96.0949 24.913 97.2534 23.7473 98.6063 23.7473C98.6479 23.7472 103.747 23.7472 103.747 23.7472ZM49.7095 23.7472C49.7384 23.7341 49.7095 26.2515 49.7095 26.2548H45.7563V39.9235H43.2477V26.2548H39.2304V23.7472C39.2594 23.7757 49.7384 23.7694 49.7095 23.7472ZM56.2287 37.4318C56.2576 37.4318 61.5002 37.4318 61.4685 37.4318V23.7339H63.9768V37.4634C63.9831 38.8821 62.9104 39.9103 61.535 39.9234L56.2033 39.9103C54.8822 39.9103 53.7204 38.9108 53.7204 37.4634C53.7204 37.4155 53.7204 23.7339 53.7204 23.7339H56.2287V37.4318ZM20.8892 39.9235C20.8575 39.9235 18.3331 39.9235 18.381 39.9235V23.7472H20.8892V39.9235ZM11.8459 23.7472C13.0967 23.6035 14.351 24.6705 14.319 26.2548C14.319 26.2548 14.319 30.7684 14.319 30.7815C14.319 31.941 13.3514 32.9024 11.8743 32.8639C11.9127 32.9024 6.60317 32.8639 6.60317 32.8639V39.9235H4.08525L4.09472 23.7472H11.8459ZM11.814 26.2546V30.3853H6.60332C6.60332 30.4202 6.63499 26.2546 6.60332 26.2546H11.814ZM33.1061 23.7472C34.2968 23.7023 35.6147 24.6352 35.5826 26.2225V28.9766C35.5509 29.0051 33.1061 29.5259 33.0744 29.5259V26.2548H27.9303V37.4413H33.0744C33.1061 37.4413 33.1061 34.103 33.0744 34.103C33.1061 34.1352 35.5826 34.6877 35.5826 34.6524C35.5315 36.1412 35.6146 37.4412 35.5826 37.4412C35.6146 39.4025 34.2647 39.9519 33.0744 39.9234H27.9303C26.3579 39.9519 25.4157 38.952 25.4157 37.4412V26.2546C25.3838 24.8109 26.3259 23.747 27.9303 23.747H33.1061V23.7472ZM76.0918 23.7277C77.4478 23.7599 78.6066 24.9705 78.6066 26.2769C78.6735 26.3123 78.5078 28.2513 78.6066 30.3658C78.6447 31.7107 77.4798 32.8863 76.1617 32.8863C76.1938 32.8863 75.8817 32.8863 75.8817 32.8863L79.6441 39.9075C79.6441 39.9393 76.9128 39.9075 76.9128 39.9075L73.087 32.8479C73.087 32.8479 70.8584 32.8479 70.8331 32.8479C70.8331 32.8479 70.8584 39.9393 70.8331 39.9075C70.7884 39.8913 68.3217 39.9075 68.3344 39.9139V23.7277C68.3504 23.7599 76.0601 23.7599 76.0918 23.7277ZM76.0918 26.2419V30.3658H70.8332C70.8332 30.4043 70.8332 26.2419 70.8332 26.2419C70.8939 26.2419 76.0918 26.2419 76.0918 26.2419Z" fill="white"/>
</svg>
