<svg width="185" height="107" viewBox="0 0 185 107" fill="none" xmlns="http://www.w3.org/2000/svg">
<path d="M94.0469 17.25L93.3203 14.0391H90.6953L89.9688 17.25H88.125L90.8906 5.82812H93.0625L95.875 17.25H94.0469ZM93.0312 12.5078L92.2891 9.0625C92.2474 8.83854 92.2083 8.6224 92.1719 8.41406C92.1354 8.20052 92.1016 7.99479 92.0703 7.79688C92.0391 7.59896 92.0104 7.40885 91.9844 7.22656C91.9688 7.40365 91.9453 7.59115 91.9141 7.78906C91.888 7.98698 91.8542 8.1901 91.8125 8.39844C91.776 8.60677 91.7344 8.82031 91.6875 9.03906L90.9609 12.5078H93.0312Z" fill="white"/>
<path d="M54.9844 90.3281C56.125 90.3281 56.9688 90.6146 57.5156 91.1875C58.0677 91.7552 58.3438 92.6146 58.3438 93.7656C58.3438 94.349 58.2734 94.8698 58.1328 95.3281C57.9922 95.7865 57.7786 96.1771 57.4922 96.5C57.2109 96.8177 56.8568 97.0599 56.4297 97.2266C56.0026 97.3932 55.4974 97.4766 54.9141 97.4766H54.2266V101.75H52.5078V90.3281H54.9844ZM54.875 91.8047H54.2266V95.9922H54.75C55.1771 95.9922 55.5286 95.9193 55.8047 95.7734C56.0807 95.6224 56.2839 95.3854 56.4141 95.0625C56.5495 94.7344 56.6172 94.3073 56.6172 93.7812C56.6172 93.0833 56.474 92.5807 56.1875 92.2734C55.9062 91.9609 55.4688 91.8047 54.875 91.8047ZM62.2344 90.3281C63.0417 90.3281 63.7083 90.4479 64.2344 90.6875C64.7656 90.9219 65.1615 91.2812 65.4219 91.7656C65.6823 92.2448 65.8125 92.849 65.8125 93.5781C65.8125 94.0677 65.7526 94.5078 65.6328 94.8984C65.513 95.2891 65.3255 95.6328 65.0703 95.9297C64.8203 96.2214 64.4974 96.4688 64.1016 96.6719L66.4375 101.75H64.5391L62.5781 97.1016H61.6484V101.75H59.9297V90.3281H62.2344ZM62.2344 91.8125H61.6484V95.7109H62.3438C62.8958 95.7109 63.3177 95.5417 63.6094 95.2031C63.9062 94.8594 64.0547 94.3464 64.0547 93.6641C64.0547 93.0182 63.9062 92.5495 63.6094 92.2578C63.3177 91.9609 62.8594 91.8125 62.2344 91.8125ZM72.8047 98.5156C72.8047 99.1823 72.6745 99.7708 72.4141 100.281C72.1536 100.792 71.7865 101.19 71.3125 101.477C70.8385 101.763 70.2786 101.906 69.6328 101.906C69.3255 101.906 69.0286 101.888 68.7422 101.852C68.4557 101.815 68.1797 101.755 67.9141 101.672C67.6484 101.589 67.388 101.482 67.1328 101.352V99.5859C67.5182 99.8203 67.9245 100 68.3516 100.125C68.7839 100.245 69.1849 100.305 69.5547 100.305C69.8828 100.305 70.1589 100.234 70.3828 100.094C70.6068 99.9479 70.776 99.7526 70.8906 99.5078C71.0052 99.263 71.0625 98.9896 71.0625 98.6875C71.0625 98.3698 71.013 98.099 70.9141 97.875C70.8203 97.6458 70.651 97.4323 70.4062 97.2344C70.1667 97.0312 69.8307 96.8099 69.3984 96.5703C69.0651 96.3776 68.763 96.1823 68.4922 95.9844C68.2214 95.7812 67.9896 95.5573 67.7969 95.3125C67.6094 95.0625 67.4635 94.7734 67.3594 94.4453C67.2604 94.112 67.2109 93.7188 67.2109 93.2656C67.2005 92.6458 67.3203 92.1016 67.5703 91.6328C67.8255 91.1641 68.1849 90.8021 68.6484 90.5469C69.112 90.2865 69.6562 90.1589 70.2812 90.1641C70.7292 90.1641 71.1615 90.2214 71.5781 90.3359C72 90.4505 72.3854 90.6042 72.7344 90.7969L72.2344 92.3359C71.8906 92.138 71.5573 91.9922 71.2344 91.8984C70.9167 91.7995 70.6172 91.75 70.3359 91.75C70.0339 91.75 69.7786 91.8125 69.5703 91.9375C69.362 92.0573 69.2031 92.2266 69.0938 92.4453C68.9844 92.6589 68.9297 92.9062 68.9297 93.1875C68.9297 93.5208 68.9792 93.7995 69.0781 94.0234C69.1823 94.2474 69.3568 94.4557 69.6016 94.6484C69.8516 94.8411 70.1927 95.0573 70.625 95.2969C71.1094 95.5677 71.513 95.8568 71.8359 96.1641C72.1589 96.4661 72.401 96.8073 72.5625 97.1875C72.724 97.5677 72.8047 98.0104 72.8047 98.5156ZM79.2734 101.75H74.4609V90.3281H79.2734V91.8125H76.1797V95.0547H79.0781V96.5469H76.1797V100.227H79.2734V101.75ZM88.3516 101.75H86.3047L82.6406 93.0391H82.5781C82.6042 93.362 82.625 93.6693 82.6406 93.9609C82.6562 94.2526 82.6667 94.526 82.6719 94.7812C82.6823 95.0365 82.6875 95.276 82.6875 95.5V101.75H81.0703V90.3281H83.1016L86.7656 98.875H86.8203C86.7995 98.5417 86.7812 98.2318 86.7656 97.9453C86.7552 97.6536 86.7448 97.3828 86.7344 97.1328C86.7292 96.8776 86.7266 96.6458 86.7266 96.4375V90.3281H88.3516V101.75ZM93.5078 101.75H91.8047V91.8359H89.625V90.3281H95.6797V91.8359H93.5078V101.75ZM101.812 101.75L101.086 98.5391H98.4609L97.7344 101.75H95.8906L98.6562 90.3281H100.828L103.641 101.75H101.812ZM100.797 97.0078L100.055 93.5625C100.013 93.3385 99.974 93.1224 99.9375 92.9141C99.901 92.7005 99.8672 92.4948 99.8359 92.2969C99.8047 92.099 99.776 91.9089 99.75 91.7266C99.7344 91.9036 99.7109 92.0911 99.6797 92.2891C99.6536 92.487 99.6198 92.6901 99.5781 92.8984C99.5417 93.1068 99.5 93.3203 99.4531 93.5391L98.7266 97.0078H100.797ZM107.711 101.75H106.008V91.8359H103.828V90.3281H109.883V91.8359H107.711V101.75ZM111.195 101.75V90.3281H112.914V101.75H111.195ZM122.383 96.0234C122.383 96.8828 122.307 97.6719 122.156 98.3906C122.01 99.1094 121.784 99.7318 121.477 100.258C121.174 100.784 120.781 101.19 120.297 101.477C119.818 101.763 119.247 101.906 118.586 101.906C117.914 101.906 117.336 101.76 116.852 101.469C116.367 101.177 115.971 100.768 115.664 100.242C115.357 99.7109 115.13 99.0859 114.984 98.3672C114.839 97.6484 114.766 96.862 114.766 96.0078C114.766 94.7161 114.909 93.638 115.195 92.7734C115.482 91.9036 115.909 91.25 116.477 90.8125C117.044 90.375 117.747 90.1562 118.586 90.1562C119.471 90.1562 120.193 90.4036 120.75 90.8984C121.312 91.3932 121.724 92.0833 121.984 92.9688C122.25 93.849 122.383 94.8672 122.383 96.0234ZM116.547 96.0234C116.547 96.9766 116.622 97.776 116.773 98.4219C116.93 99.0677 117.159 99.5547 117.461 99.8828C117.763 100.211 118.135 100.375 118.578 100.375C119.026 100.375 119.398 100.216 119.695 99.8984C119.992 99.5755 120.216 99.0938 120.367 98.4531C120.518 97.8073 120.594 96.9974 120.594 96.0234C120.594 94.5703 120.424 93.4818 120.086 92.7578C119.753 92.0339 119.253 91.6719 118.586 91.6719C118.133 91.6719 117.755 91.8359 117.453 92.1641C117.151 92.4922 116.924 92.9792 116.773 93.625C116.622 94.2656 116.547 95.0651 116.547 96.0234ZM131.508 101.75H129.461L125.797 93.0391H125.734C125.76 93.362 125.781 93.6693 125.797 93.9609C125.812 94.2526 125.823 94.526 125.828 94.7812C125.839 95.0365 125.844 95.276 125.844 95.5V101.75H124.227V90.3281H126.258L129.922 98.875H129.977C129.956 98.5417 129.938 98.2318 129.922 97.9453C129.911 97.6536 129.901 97.3828 129.891 97.1328C129.885 96.8776 129.883 96.6458 129.883 96.4375V90.3281H131.508V101.75Z" fill="white"/>
<g clip-path="url(#clip0_2_109)">
<path d="M38.2179 61.2509V52.2864H47.4104V74.4389H39.8403L34.4932 70.2208V74.4389H25.4402V51.9136L38.2179 61.2509Z" fill="white"/>
<path d="M174.485 61.2509V52.2864H183.688V74.4389H176.108L170.76 70.2208V74.4389H161.699V51.9136L174.485 61.2509Z" fill="white"/>
<path d="M49.6629 74.4389V52.2864H58.7267V74.4389H49.6629Z" fill="white"/>
<path d="M61.0355 51.9136L73.1026 61.2643L85.1697 51.9136V74.4389H76.157V69.7757L73.1187 71.8378L70.0805 69.8078V74.4389H61.0355V51.9136Z" fill="white"/>
<path d="M125.731 52.2864L125.702 58.9153H120.54V74.4389H111.487V58.9153H106.191L106.22 52.2864H125.731Z" fill="white"/>
<path d="M127.252 74.4389V52.2864H136.305V74.4389H127.252Z" fill="white"/>
<path d="M149.096 51.9727C146.844 51.9727 144.642 52.6406 142.769 53.892C140.896 55.1434 139.436 56.9221 138.574 59.0031C137.712 61.0841 137.487 63.374 137.926 65.5832C138.366 67.7923 139.45 69.8216 141.043 71.4144C142.636 73.0071 144.665 74.0918 146.874 74.5312C149.083 74.9706 151.373 74.7451 153.454 73.8831C155.535 73.0211 157.314 71.5614 158.565 69.6886C159.817 67.8157 160.485 65.6138 160.485 63.3613C160.485 60.3409 159.285 57.4441 157.149 55.3083C155.013 53.1725 152.116 51.9727 149.096 51.9727ZM149.064 65.6621C148.472 65.6488 147.909 65.4036 147.496 64.9792C147.084 64.5549 146.854 63.9855 146.857 63.3935C146.863 62.9506 147 62.5194 147.251 62.1544C147.502 61.7894 147.856 61.5071 148.267 61.3432C148.679 61.1792 149.129 61.141 149.563 61.2333C149.996 61.3257 150.392 61.5444 150.701 61.8619C151.01 62.1794 151.217 62.5814 151.298 63.017C151.378 63.4526 151.328 63.9022 151.152 64.3091C150.977 64.7159 150.685 65.0616 150.313 65.3024C149.942 65.5433 149.507 65.6685 149.064 65.6621Z" fill="white"/>
<path d="M12.4238 70.8027L14.4859 74.4363H24.8476L12.4238 51.9002L0 74.4363H10.359L12.4238 70.8027Z" fill="white"/>
<path d="M98.2398 70.8027L100.305 74.4363H110.666L98.2398 51.9002L85.816 74.4363H96.1777L98.2398 70.8027Z" fill="white"/>
<path d="M2.20158 43.1583C2.26862 43.1931 3.67108 44.2792 4.88316 44.2792C5.53747 44.2792 6.01479 43.8689 6.01479 43.295C6.01479 42.6059 5.44093 42.0803 4.32539 41.6378C2.9122 41.08 1.13967 39.9833 1.13967 38.015C1.13967 36.3926 2.41342 34.7515 4.92875 34.7515C6.80585 34.7515 8.17614 35.8241 8.66687 36.229C8.52743 36.4436 7.68541 37.7468 7.41726 38.1517C7.26977 38.0686 5.80831 36.9987 4.79735 36.9987C4.2074 36.9987 3.75421 37.3929 3.75421 37.8353C3.75421 38.4414 4.24494 38.9079 5.54015 39.4255C6.83535 39.943 8.85458 40.9325 8.85458 43.1636C8.85458 44.853 7.39312 46.5585 4.98238 46.5585C2.66281 46.5505 1.44269 45.4778 1.07263 45.1024C1.17721 44.9147 2.12649 43.2762 2.20158 43.1583Z" fill="white"/>
<path d="M177.885 43.1583C177.953 43.1931 179.355 44.2792 180.567 44.2792C181.224 44.2792 181.699 43.8689 181.699 43.295C181.699 42.6059 181.125 42.0803 180.012 41.6378C178.593 41.08 176.824 39.9833 176.824 38.015C176.824 36.406 178.087 34.7515 180.613 34.7515C182.49 34.7515 183.86 35.8241 184.351 36.229C184.211 36.4436 183.369 37.7468 183.101 38.1517C182.954 38.0686 181.492 36.9987 180.481 36.9987C179.891 36.9987 179.449 37.3929 179.449 37.8353C179.449 38.4414 179.94 38.9079 181.235 39.4255C182.53 39.943 184.547 40.9325 184.547 43.1636C184.547 44.853 183.088 46.5585 180.677 46.5585C178.344 46.5585 177.127 45.4859 176.749 45.1024C176.861 44.9147 177.81 43.2762 177.885 43.1583Z" fill="white"/>
<path d="M20.9164 34.7515C22.481 34.7515 23.9816 35.3731 25.0879 36.4794C26.1943 37.5858 26.8159 39.0863 26.8159 40.651C26.8159 42.2156 26.1943 43.7162 25.0879 44.8226C23.9816 45.9289 22.481 46.5505 20.9164 46.5505C20.1416 46.5572 19.3731 46.41 18.6557 46.1172C17.9383 45.8245 17.2862 45.3921 16.7373 44.8452C16.1885 44.2983 15.7537 43.6478 15.4584 42.9315C15.163 42.2151 15.0129 41.4473 15.0169 40.6724C15.0112 39.8951 15.1598 39.1244 15.454 38.4049C15.7482 37.6853 16.1822 37.0313 16.7308 36.4807C17.2795 35.93 17.9319 35.4936 18.6504 35.1968C19.3688 34.9 20.139 34.7486 20.9164 34.7515ZM20.9164 43.9332C21.566 43.9343 22.2014 43.7424 22.7418 43.3818C23.2822 43.0213 23.7034 42.5083 23.9519 41.9081C24.2004 41.3078 24.265 40.6472 24.1375 40.0102C24.01 39.3732 23.6962 38.7883 23.2359 38.3299C22.7756 37.8715 22.1895 37.5601 21.5519 37.4352C20.9144 37.3104 20.2541 37.3777 19.6549 37.6286C19.0556 37.8796 18.5444 38.3029 18.1861 38.8448C17.8277 39.3867 17.6384 40.0228 17.6422 40.6724C17.6485 41.5376 17.9959 42.3654 18.609 42.9759C19.222 43.5864 20.0512 43.9304 20.9164 43.9332Z" fill="white"/>
<path d="M33.8148 34.7515H34.5361L41.0792 41.0479H41.0952V34.9151H43.6857V46.5505H42.9777L36.4213 39.9672H36.4052V46.403H33.8308L33.8148 34.7515Z" fill="white"/>
<path d="M53.688 40.8682L49.7219 34.9151H52.6341L54.9993 38.4253L57.3644 34.9151H60.2766L56.2543 40.8521V46.3949H53.991C53.991 46.3949 53.6799 46.5585 53.6799 46.3949L53.688 40.8682Z" fill="white"/>
<path d="M75.3927 35.2261V34.9151H79.6564C80.6229 34.9136 81.5509 35.2936 82.2388 35.9724C82.9267 36.6513 83.3189 37.5742 83.3302 38.5406C83.3302 39.5134 82.9458 40.4468 82.2607 41.1374C81.5756 41.8281 80.6453 42.22 79.6725 42.2278H77.9509V46.3949H75.3927V35.2261ZM79.5089 39.8465C79.6793 39.8476 79.8482 39.8148 80.0058 39.7501C80.1635 39.6854 80.3067 39.59 80.4272 39.4695C80.5476 39.349 80.643 39.2058 80.7077 39.0482C80.7724 38.8906 80.8052 38.7217 80.8041 38.5513C80.8007 38.3854 80.7643 38.2219 80.6971 38.0702C80.6299 37.9186 80.5333 37.7817 80.4128 37.6677C80.2923 37.5537 80.1503 37.4648 79.9952 37.4061C79.84 37.3474 79.6747 37.3201 79.5089 37.3258H77.9509V39.8465H79.5089Z" fill="white"/>
<path d="M89.9054 34.9151H92.4958V46.3949H89.9054V34.9151Z" fill="white"/>
<path d="M105.386 34.7515C106.17 34.7334 106.95 34.8783 107.675 35.1769C108.4 35.4756 109.055 35.9215 109.599 36.4865L107.918 38.2376C107.259 37.6067 106.386 37.2493 105.475 37.2373C103.622 37.2373 102.257 38.7792 102.257 40.6161C102.246 41.048 102.322 41.4776 102.479 41.8798C102.636 42.2821 102.873 42.6489 103.173 42.9588C103.474 43.2687 103.834 43.5155 104.232 43.6846C104.629 43.8538 105.056 43.942 105.488 43.944C106.395 43.9256 107.266 43.5853 107.944 42.984C108.068 43.1234 108.014 43.0591 108.111 43.1744L109.39 44.5366C109.505 44.6492 109.465 44.6144 109.618 44.7806C108.183 46.1241 106.85 46.5505 105.386 46.5505C103.822 46.5505 102.321 45.9289 101.215 44.8226C100.108 43.7162 99.4868 42.2156 99.4868 40.651C99.4868 39.0864 100.108 37.5858 101.215 36.4794C102.321 35.3731 103.822 34.7515 105.386 34.7515Z" fill="white"/>
<path d="M118.193 37.3258H115.536V34.9124H123.439V37.3258H120.784V46.395H118.193V37.3258Z" fill="white"/>
<path d="M129.845 34.9151H132.484V41.8684C132.474 42.1417 132.519 42.4143 132.617 42.6697C132.714 42.9251 132.863 43.1582 133.053 43.3551C133.242 43.552 133.47 43.7086 133.722 43.8155C133.973 43.9225 134.244 43.9776 134.518 43.9776C134.791 43.9776 135.062 43.9225 135.314 43.8155C135.565 43.7086 135.793 43.552 135.983 43.3551C136.173 43.1582 136.321 42.9251 136.418 42.6697C136.516 42.4143 136.562 42.1417 136.552 41.8684V34.9151H139.19V41.9918C139.161 43.2117 138.656 44.3717 137.783 45.2242C136.91 46.0766 135.738 46.5538 134.518 46.5538C133.297 46.5538 132.125 46.0766 131.252 45.2242C130.379 44.3717 129.874 43.2117 129.845 41.9918V34.9151Z" fill="white"/>
<path d="M146.844 35.2261V34.9151H152.059C153.002 34.9129 153.908 35.2844 154.578 35.9483C155.248 36.6122 155.627 37.5143 155.634 38.4574C155.634 39.9672 154.634 41.1793 153.22 41.7531L155.8 46.3949H152.901L150.549 41.9006H149.418V46.3949H146.844V35.2261ZM151.845 39.8197C152.181 39.8018 152.498 39.6557 152.73 39.4112C152.962 39.1668 153.091 38.8427 153.092 38.5057C153.089 38.1761 152.956 37.8609 152.723 37.6281C152.49 37.3952 152.174 37.2636 151.845 37.2615H149.431V39.8197H151.845Z" fill="white"/>
<path d="M162.804 35.2261V34.9151H170.216V37.3285H165.362V39.3611H169.243V41.7746H165.362V43.9895H170.216V46.403H162.804V35.2261Z" fill="white"/>
</g>
<defs>
<clipPath id="clip0_2_109">
<rect width="184.547" height="40" fill="white" transform="translate(0 34.75)"/>
</clipPath>
</defs>
</svg>
